<?xml version="1.0" encoding="UTF-8" standalone="no"?>
<svg
   xmlns:dc="http://purl.org/dc/elements/1.1/"
   xmlns:cc="http://creativecommons.org/ns#"
   xmlns:rdf="http://www.w3.org/1999/02/22-rdf-syntax-ns#"
   xmlns:svg="http://www.w3.org/2000/svg"
   xmlns="http://www.w3.org/2000/svg"
   xmlns:sodipodi="http://sodipodi.sourceforge.net/DTD/sodipodi-0.dtd"
   xmlns:inkscape="http://www.inkscape.org/namespaces/inkscape"
   width="387.12027"
   height="74.446205"
   viewBox="0 0 387.12027 74.446205"
   id="svg2"
   version="1.1"
   inkscape:version="0.48.4 r9939"
   sodipodi:docname="oaerial.svg">
  <metadata
     id="metadata32">
    <rdf:RDF>
      <cc:Work
         rdf:about="">
        <dc:format>image/svg+xml</dc:format>
        <dc:type
           rdf:resource="http://purl.org/dc/dcmitype/StillImage" />
      </cc:Work>
    </rdf:RDF>
  </metadata>
  <defs
     id="defs30" />
  <sodipodi:namedview
     pagecolor="#ffffff"
     bordercolor="#666666"
     borderopacity="1"
     objecttolerance="10"
     gridtolerance="10"
     guidetolerance="10"
     inkscape:pageopacity="0"
     inkscape:pageshadow="2"
     inkscape:window-width="1443"
     inkscape:window-height="796"
     id="namedview28"
     showgrid="false"
     fit-margin-top="0"
     fit-margin-left="0"
     fit-margin-right="0"
     fit-margin-bottom="0"
     inkscape:zoom="1.7125749"
     inkscape:cx="113.58591"
     inkscape:cy="16"
     inkscape:window-x="0"
     inkscape:window-y="0"
     inkscape:window-maximized="0"
     inkscape:current-layer="svg2" />
  <path
     d="M 37.223104,0 22.333862,70.723898 7.4446208,74.446208 0,52.112346 z"
     id="path4"
     inkscape:connector-curvature="0"
     style="fill:#e4e8e9" />
  <path
     d="M 37.223104,0 V 59.556966 L 22.333862,70.723898 z"
     id="path6"
     inkscape:connector-curvature="0"
     style="fill:#b8c1c4" />
  <path
     d="m 37.223104,0 14.889241,70.723898 14.889242,3.72231 7.444621,-22.333862 z"
     id="path8"
     inkscape:connector-curvature="0"
     style="fill:#e4e8e9" />
  <path
     d="M 37.223104,0 V 59.556966 L 52.112345,70.723898 z"
     id="path10"
     inkscape:connector-curvature="0"
     style="fill:#d2d8da" />
  <path
     d="m 26.288817,52.112346 -1.628511,7.44462 12.562798,-7.44462 v -7.444621 z"
     id="path12"
     inkscape:connector-curvature="0"
     style="fill:#dbe0e1" />
  <path
     d="M 48.157391,52.112346 37.223104,44.667725 v 7.444621 l 12.562797,7.44462 z"
     id="path14"
     inkscape:connector-curvature="0"
     style="fill:#edeff0" />
  <path
     d="m 48.390035,53.042923 -0.232644,-0.930577 0.232644,0.930577 z"
     id="path16"
     inkscape:connector-curvature="0"
     style="fill:#203c46" />
  <path
     d="M 55.834656,52.112346 V 26.056173 L 48.390035,15.587175 v 36.525171 h -0.232644 l 1.62851,7.44462 h 22.101218 l 2.559089,-7.44462 z m -37.223104,0 V 26.056173 L 11.166931,36.525171 V 73.51563 l 7.444621,-1.861155 V 59.556966 h 6.048754 l 1.628511,-7.44462 z"
     id="path18"
     inkscape:connector-curvature="0"
     style="fill:#ffffff" />
  <path
     d="M 55.834656,26.056173 V 52.112346 H 74.446208 z"
     id="path20"
     inkscape:connector-curvature="0"
     style="fill:#68c39f" />
  <path
     d="M 0,52.112346 7.4446208,74.446208 11.166931,73.51563 V 36.525171 z"
     id="path22"
     inkscape:connector-curvature="0"
     style="fill:#449bb5" />
  <g
     id="g24"
     style="fill:#ffffff"
     transform="scale(2.326444,2.326444)">
    <path
       d="m 50.1,16.2 c 0,2 -0.5,3.6 -1.5,4.7 -1,1.1 -2.4,1.6 -4.3,1.6 -1.9,0 -3.3,-0.5 -4.3,-1.6 -1,-1.1 -1.5,-2.7 -1.5,-4.7 0,-2.1 0.5,-3.6 1.5,-4.7 1,-1.1 2.5,-1.6 4.3,-1.6 1.9,0 3.3,0.5 4.3,1.6 1,1.1 1.5,2.7 1.5,4.7 z m -9,0 c 0,1.4 0.3,2.4 0.8,3.1 0.5,0.7 1.3,1 2.3,1 2.1,0 3.1,-1.4 3.1,-4.2 0,-2.8 -1,-4.2 -3.1,-4.2 -1,0 -1.8,0.3 -2.3,1 -0.5,0.9 -0.8,1.9 -0.8,3.3 z m 16.1,6.4 c -1.1,0 -2,-0.4 -2.6,-1.2 h -0.1 c 0.1,0.8 0.1,1.2 0.1,1.4 v 3.8 H 52 V 13 h 2.1 l 0.4,1.2 h 0.1 c 0.6,-0.9 1.5,-1.4 2.7,-1.4 1.1,0 2,0.4 2.6,1.3 0.6,0.9 0.9,2.1 0.9,3.6 0,1 -0.1,1.9 -0.4,2.6 -0.3,0.7 -0.7,1.3 -1.3,1.7 -0.5,0.4 -1.1,0.6 -1.9,0.6 z m -0.7,-7.7 c -0.6,0 -1.1,0.2 -1.4,0.6 -0.3,0.4 -0.4,1 -0.5,1.9 v 0.3 c 0,1 0.1,1.7 0.4,2.2 0.3,0.4 0.8,0.7 1.4,0.7 1.1,0 1.7,-0.9 1.7,-2.8 0,-0.9 -0.1,-1.6 -0.4,-2.1 -0.2,-0.6 -0.6,-0.8 -1.2,-0.8 z M 67,22.6 c -1.5,0 -2.7,-0.4 -3.5,-1.3 -0.8,-0.8 -1.3,-2 -1.3,-3.6 0,-1.6 0.4,-2.8 1.2,-3.7 0.8,-0.9 1.9,-1.3 3.3,-1.3 1.3,0 2.4,0.4 3.1,1.1 0.7,0.8 1.1,1.8 1.1,3.1 v 1.2 h -6 c 0,0.7 0.2,1.3 0.6,1.7 0.4,0.4 1,0.6 1.7,0.6 0.6,0 1.1,-0.1 1.6,-0.2 0.5,-0.1 1,-0.3 1.6,-0.6 v 2 C 70,21.8 69.5,22 69,22.1 c -0.7,0.4 -1.3,0.5 -2,0.5 z m -0.4,-8 c -0.5,0 -1,0.2 -1.3,0.5 -0.3,0.3 -0.5,0.8 -0.5,1.5 h 3.6 c 0,-0.6 -0.2,-1.1 -0.5,-1.5 -0.3,-0.3 -0.8,-0.5 -1.3,-0.5 z m 14.6,7.8 h -2.6 v -5.5 c 0,-0.7 -0.1,-1.2 -0.4,-1.5 -0.2,-0.3 -0.6,-0.5 -1.1,-0.5 -0.7,0 -1.2,0.2 -1.6,0.7 C 75.2,16.1 75,16.9 75,18 v 4.4 H 72.4 V 13 h 2 l 0.3,1.2 H 75 c 0.3,-0.5 0.7,-0.8 1.2,-1 0.5,-0.2 1.1,-0.3 1.7,-0.3 1.1,0 1.9,0.3 2.5,0.9 0.6,0.6 0.8,1.4 0.8,2.6 v 6 z m 10.3,0 -0.9,-2.9 h -4.5 l -0.9,2.9 H 82.4 L 86.8,10 H 90 l 4.3,12.4 H 91.5 z M 90,17.3 c -0.8,-2.7 -1.3,-4.2 -1.4,-4.5 -0.1,-0.3 -0.2,-0.6 -0.2,-0.8 -0.2,0.7 -0.7,2.5 -1.6,5.3 H 90 z m 9.5,5.3 c -1.5,0 -2.7,-0.4 -3.5,-1.3 -0.8,-0.8 -1.3,-2 -1.3,-3.6 0,-1.6 0.4,-2.8 1.2,-3.7 0.8,-0.9 1.9,-1.3 3.3,-1.3 1.3,0 2.4,0.4 3.1,1.1 0.7,0.8 1.1,1.8 1.1,3.1 v 1.2 h -6 c 0,0.7 0.2,1.3 0.6,1.7 0.4,0.4 1,0.6 1.7,0.6 0.6,0 1.1,-0.1 1.6,-0.2 0.5,-0.1 1,-0.3 1.6,-0.6 v 2 c -0.4,0.2 -0.9,0.4 -1.4,0.5 -0.7,0.4 -1.3,0.5 -2,0.5 z m -0.4,-8 c -0.5,0 -1,0.2 -1.3,0.5 -0.3,0.3 -0.5,0.8 -0.5,1.5 h 3.6 c 0,-0.6 -0.2,-1.1 -0.5,-1.5 -0.3,-0.4 -0.8,-0.5 -1.3,-0.5 z m 11.2,-1.8 c 0.3,0 0.6,0 0.9,0.1 l -0.2,2.4 c -0.2,-0.1 -0.5,-0.1 -0.8,-0.1 -0.8,0 -1.5,0.2 -1.9,0.6 -0.5,0.4 -0.7,1 -0.7,1.8 v 4.8 H 105 V 13 h 1.9 l 0.4,1.6 h 0.1 c 0.3,-0.5 0.7,-1 1.2,-1.3 0.6,-0.3 1.1,-0.5 1.7,-0.5 z m 2,-2.3 c 0,-0.8 0.5,-1.3 1.4,-1.3 0.9,0 1.4,0.4 1.4,1.3 0,0.4 -0.1,0.7 -0.3,0.9 -0.2,0.2 -0.6,0.3 -1,0.3 -1,0.1 -1.5,-0.3 -1.5,-1.2 z m 2.7,11.9 h -2.6 V 13 h 2.6 v 9.4 z m 8.2,0 -0.5,-1.3 h -0.1 c -0.4,0.5 -0.9,0.9 -1.3,1.1 -0.5,0.2 -1,0.3 -1.8,0.3 -0.9,0 -1.6,-0.3 -2.1,-0.8 -0.5,-0.5 -0.8,-1.3 -0.8,-2.2 0,-1 0.3,-1.7 1,-2.2 0.7,-0.5 1.7,-0.7 3.1,-0.8 l 1.6,-0.1 V 16 c 0,-1 -0.5,-1.4 -1.5,-1.4 -0.7,0 -1.6,0.2 -2.6,0.7 l -0.8,-1.7 c 1.1,-0.6 2.3,-0.9 3.6,-0.9 1.3,0 2.2,0.3 2.9,0.8 0.7,0.6 1,1.4 1,2.5 v 6.3 h -1.7 v 0.1 z M 122.4,18 h -1 c -0.7,0 -1.3,0.2 -1.7,0.4 -0.4,0.2 -0.5,0.6 -0.5,1.1 0,0.7 0.4,1.1 1.2,1.1 0.6,0 1.1,-0.2 1.4,-0.5 0.4,-0.3 0.5,-0.8 0.5,-1.4 l 0.1,-0.7 z m 7.3,4.4 h -2.6 V 9.3 h 2.6 v 13.1 z m 7.6,0 -3,-9.7 h -0.1 c 0.1,2 0.2,3.3 0.2,3.9 v 5.7 h -2.3 V 10.1 h 3.5 l 2.9,9.4 h 0.1 l 3.1,-9.4 h 3.5 v 12.3 h -2.4 v -6.8 c 0,0 0,-1.3 0.1,-2.9 h -0.1 l -3.2,9.7 h -2.3 z m 16.4,0 -0.5,-1.3 h -0.1 c -0.4,0.5 -0.9,0.9 -1.3,1.1 -0.5,0.2 -1,0.3 -1.8,0.3 -0.9,0 -1.6,-0.3 -2.1,-0.8 -0.5,-0.5 -0.8,-1.3 -0.8,-2.2 0,-1 0.3,-1.7 1,-2.2 0.7,-0.5 1.7,-0.7 3.1,-0.8 l 1.6,-0.1 V 16 c 0,-1 -0.5,-1.4 -1.5,-1.4 -0.7,0 -1.6,0.2 -2.6,0.7 l -0.8,-1.7 c 1.1,-0.6 2.3,-0.9 3.6,-0.9 1.3,0 2.2,0.3 2.9,0.8 0.7,0.6 1,1.4 1,2.5 v 6.3 h -1.7 v 0.1 z M 152.9,18 h -1 c -0.7,0 -1.3,0.2 -1.7,0.4 -0.4,0.2 -0.5,0.6 -0.5,1.1 0,0.7 0.4,1.1 1.2,1.1 0.6,0 1.1,-0.2 1.4,-0.5 0.4,-0.3 0.5,-0.8 0.5,-1.4 V 18 h 0.1 z m 9.9,4.6 c -1.1,0 -2,-0.4 -2.6,-1.2 h -0.1 c 0.1,0.8 0.1,1.2 0.1,1.4 v 3.8 h -2.6 V 13 h 2.1 l 0.4,1.2 h 0.1 c 0.6,-0.9 1.5,-1.4 2.7,-1.4 1.1,0 2,0.4 2.6,1.3 0.6,0.9 0.9,2.1 0.9,3.6 0,1 -0.1,1.9 -0.4,2.6 -0.3,0.7 -0.7,1.3 -1.3,1.7 -0.5,0.4 -1.2,0.6 -1.9,0.6 z M 162,14.9 c -0.6,0 -1.1,0.2 -1.4,0.6 -0.3,0.4 -0.4,1 -0.5,1.9 v 0.3 c 0,1 0.1,1.7 0.4,2.2 0.3,0.4 0.8,0.7 1.4,0.7 1.1,0 1.7,-0.9 1.7,-2.8 0,-0.9 -0.1,-1.6 -0.4,-2.1 -0.1,-0.6 -0.6,-0.8 -1.2,-0.8 z"
       id="path26"
       inkscape:connector-curvature="0" />
  </g>
</svg>
